<svg width="479" height="139" viewBox="0 0 479 139" fill="none" xmlns="http://www.w3.org/2000/svg">
    <path
        d="M18.632 75.992C18.632 83.416 21.7893 87.128 28.104 87.128C35.016 87.128 39.6667 84.7387 42.056 79.96C42.9093 78.2533 43.336 76.0773 43.336 73.432C43.336 70.7013 42.696 68.184 41.416 65.88C39.2827 62.2107 35.6133 58.1573 30.408 53.72C21.7893 46.3813 17.48 38.7867 17.48 30.936C17.48 23 19.9547 16.8987 24.904 12.632C29.8533 8.36533 35.528 6.23199 41.928 6.23199C48.328 6.23199 53.4053 7.85333 57.16 11.096C60.9147 14.3387 62.792 19.2027 62.792 25.688C62.792 29.9547 61.3413 33.6667 58.44 36.824C55.624 39.9813 51.8693 41.944 47.176 42.712C49.3093 44.504 51.4427 46.3387 53.576 48.216C55.624 50.0933 57.5013 52.1413 59.208 54.36C62.9627 59.3947 64.84 65.4107 64.84 72.408C64.84 77.272 63.688 81.6667 61.384 85.592C59.1653 89.5173 56.2213 92.8453 52.552 95.576C48.968 98.2213 44.9147 100.269 40.392 101.72C35.8693 103.171 31.6453 103.896 27.72 103.896C19.3573 103.896 12.872 101.976 8.264 98.136C2.888 93.784 0.2 87.512 0.2 79.32C0.2 73.944 1.94933 68.7387 5.448 63.704C8.94667 58.6693 12.6587 56.152 16.584 56.152C19.656 56.152 21.192 57.0907 21.192 58.968C21.192 61.6987 20.7653 64.4293 19.912 67.16C19.0587 69.8053 18.632 72.7493 18.632 75.992ZM43.464 39.64C48.328 34.776 50.76 29.6987 50.76 24.408C50.76 22.7867 49.9067 21.4213 48.2 20.312C46.3227 19.288 44.36 18.776 42.312 18.776C37.704 18.776 34.376 20.2693 32.328 23.256C33.352 26.9253 34.8453 30.04 36.808 32.6C38.856 35.16 41.0747 37.5067 43.464 39.64ZM116.464 59.992C116.464 56.92 114.629 55.384 110.96 55.384C107.376 55.384 103.835 58.2 100.336 63.832C96.8373 69.3787 94.6613 75.0533 93.808 80.856C93.9787 82.8187 94.1493 84.7813 94.32 86.744C94.4907 88.7067 94.576 90.6267 94.576 92.504C94.576 97.0267 93.0827 100.099 90.096 101.72C88.7307 102.488 87.408 103.213 86.128 103.896C84.9333 104.579 83.5253 104.92 81.904 104.92C80.2827 104.92 78.832 103.853 77.552 101.72C76.3573 99.5013 75.76 96.088 75.76 91.48C75.76 78.5947 76.6987 67.416 78.576 57.944C81.4773 43.2667 87.2373 27.5653 95.856 10.84C97.0507 8.536 98.8 7.42666 101.104 7.51199C103.408 7.51199 105.285 9.09066 106.736 12.248C108.187 15.4053 108.869 18.0507 108.784 20.184C108.784 22.3173 108.443 24.408 107.76 26.456C107.163 28.4187 106.352 30.3813 105.328 32.344C104.389 34.2213 103.28 36.184 102 38.232C100.805 40.1947 99.6107 42.328 98.416 44.632L96.496 53.848C99.824 48.3013 104.304 44.5893 109.936 42.712C111.984 42.0293 114.245 41.688 116.72 41.688C122.523 41.688 126.917 43.0107 129.904 45.656C132.891 48.216 134.384 51.8853 134.384 56.664C134.384 61.3573 133.744 66.136 132.464 71C131.269 75.864 130.373 79.3627 129.776 81.496C129.264 83.544 129.008 85.2507 129.008 86.616C129.008 87.9813 129.477 88.664 130.416 88.664C131.696 88.664 133.275 87.8533 135.152 86.232C137.029 84.6107 138.907 82.8613 140.784 80.984C142.661 79.0213 144.368 77.2293 145.904 75.608C147.525 73.9867 148.635 73.176 149.232 73.176C150.427 73.176 151.024 74.6267 151.024 77.528C151.024 83.5013 148.08 89.2613 142.192 94.808C132.293 100.611 125.979 103.512 123.248 103.512C122.992 103.512 122.821 103.469 122.736 103.384C115.909 103.384 112.496 97.9227 112.496 87C112.496 82.3067 112.923 77.9973 113.776 74.072C114.715 70.1467 115.397 67.288 115.824 65.496C116.251 63.704 116.464 61.8693 116.464 59.992ZM196.302 92.12C189.561 100.056 181.454 104.024 171.982 104.024C162.595 104.024 155.555 101.635 150.862 96.856C146.169 91.992 143.865 85.976 143.95 78.808C143.865 68.6533 147.065 59.9067 153.55 52.568C160.035 45.2293 168.526 41.56 179.022 41.56C183.801 41.56 187.641 42.1573 190.542 43.352C195.577 45.4 198.094 47.32 198.094 49.112C198.094 50.4773 194.553 51.2027 187.47 51.288C180.473 51.288 174.585 53.72 169.806 58.584C165.113 63.3627 162.766 69.4213 162.766 76.76C162.766 80.6 163.875 83.8427 166.094 86.488C168.398 89.048 171.598 90.328 175.694 90.328C179.875 90.328 183.331 89.4747 186.062 87.768C180.003 83.672 176.974 77.7413 176.974 69.976C176.889 65.88 178.339 62.168 181.326 58.84C184.398 55.4267 188.281 53.72 192.974 53.72C197.753 53.6347 201.166 54.9147 203.214 57.56C205.262 60.2053 206.286 63.6187 206.286 67.8C206.286 71.896 205.305 76.248 203.342 80.856H204.11C207.865 80.7707 211.107 79.448 213.838 76.888C214.862 75.864 215.715 74.968 216.398 74.2C217.166 73.432 217.934 73.048 218.702 73.048C219.897 73.048 220.494 74.456 220.494 77.272C220.494 82.4773 218.958 86.4027 215.886 89.048C212.814 91.608 209.401 92.888 205.646 92.888C201.977 92.888 198.862 92.632 196.302 92.12ZM195.15 77.272C196.601 74.2 197.326 71.2133 197.326 68.312C197.326 65.4107 196.387 63.96 194.51 63.96C193.742 63.96 193.102 64.5147 192.59 65.624C192.078 66.7333 191.822 67.8 191.822 68.824C191.822 72.2373 192.931 75.0533 195.15 77.272ZM232.778 81.496L233.546 97.112C233.546 99.16 232.479 100.995 230.346 102.616C228.213 104.237 225.311 105.048 221.642 105.048C219.509 105.048 218.015 103.939 217.162 101.72C216.394 99.5013 216.01 96.2587 216.01 91.992C216.01 83.032 216.437 76.0347 217.29 71C218.229 65.88 220.021 60.7173 222.666 55.512C218.741 51.7573 216.778 48.5147 216.778 45.784C216.778 40.0667 219.85 37.208 225.994 37.208C229.151 37.208 231.925 38.872 234.314 42.2C236.021 44.504 237.258 47.192 238.026 50.264C239.221 50.6907 240.714 50.904 242.506 50.904C244.981 50.904 247.839 50.0933 251.082 48.472L254.41 46.808C255.434 46.296 256.33 46.04 257.098 46.04C259.573 46.04 262.047 49.6667 264.522 56.92C263.754 60.248 262.901 63.448 261.962 66.52C261.109 69.592 260.085 73.304 258.89 77.656C257.695 82.008 257.055 84.952 256.97 86.488C256.97 87.9387 257.439 88.664 258.378 88.664C259.658 88.664 261.237 87.8533 263.114 86.232C264.991 84.6107 266.869 82.8613 268.746 80.984C270.623 79.0213 272.33 77.2293 273.866 75.608C275.487 73.9867 276.597 73.176 277.194 73.176C278.389 73.176 278.986 74.6267 278.986 77.528C278.986 83.416 276.383 89.2187 271.178 94.936C266.058 100.653 260.17 103.469 253.514 103.384C249.589 103.384 246.645 101.805 244.682 98.648C242.719 95.4907 241.695 91.6507 241.61 87.128C241.61 78.168 243.615 69.6773 247.626 61.656C245.749 62.424 243.615 62.808 241.226 62.808C238.922 62.808 237.258 62.7227 236.234 62.552C235.466 65.7947 234.698 69.08 233.93 72.408C233.162 75.6507 232.778 78.68 232.778 81.496ZM278.222 96.088C277.283 93.784 276.601 91.1387 276.174 88.152C275.747 85.08 275.534 80.8133 275.534 75.352C275.534 69.8907 276.558 62.5093 278.606 53.208H272.846C271.822 53.208 271.31 52.7813 271.31 51.928C271.31 49.88 271.481 48.216 271.822 46.936C272.249 45.5707 273.187 44.0347 274.638 42.328H277.71C278.905 42.328 280.185 42.2853 281.55 42.2C285.646 29.0587 289.827 22.488 294.094 22.488C297.507 22.5733 299.897 24.7493 301.262 29.016C301.603 30.2107 301.987 31.4907 302.414 32.856L297.166 42.072C303.139 42.2427 306.894 42.328 308.43 42.328C310.051 42.328 310.905 42.4987 310.99 42.84C311.161 43.096 311.246 43.5227 311.246 44.12C311.246 45.656 310.862 47.576 310.094 49.88C309.411 52.184 308.601 53.2933 307.662 53.208L294.862 52.568C293.07 62.9787 292.174 71.5973 292.174 78.424C292.174 85.2507 293.155 88.664 295.118 88.664C296.739 88.664 299.683 87.3413 303.95 84.696C308.217 81.9653 311.289 79.3627 313.166 76.888C315.043 74.4133 316.579 73.176 317.774 73.176C318.969 73.176 319.566 74.6267 319.566 77.528C319.566 80.4293 318.542 83.416 316.494 86.488C314.446 89.4747 311.843 92.248 308.686 94.808C305.614 97.2827 302.158 99.3307 298.318 100.952C294.563 102.573 291.278 103.384 288.462 103.384C285.646 103.384 283.47 102.744 281.934 101.464C280.483 100.099 279.246 98.3067 278.222 96.088ZM328.575 103.384C320.042 103.384 315.775 95.4053 315.775 79.448C315.775 70.744 316.842 62.8507 318.975 55.768C322.303 44.8453 326.058 39.384 330.239 39.384C332.714 39.384 334.676 41.048 336.127 44.376C337.322 46.936 337.876 49.4533 337.791 51.928C337.791 55.3413 336.767 61.3573 334.719 69.976C332.756 77.4853 331.775 82.136 331.775 83.928C331.775 85.72 332.202 86.9573 333.055 87.64C333.994 88.3227 335.06 88.664 336.255 88.664C337.535 88.664 339.114 87.8533 340.991 86.232C342.868 84.6107 344.746 82.8613 346.623 80.984C348.5 79.0213 350.207 77.2293 351.743 75.608C353.364 73.9867 354.474 73.176 355.071 73.176C356.266 73.176 356.863 74.6267 356.863 77.528C356.863 83.5013 353.834 89.3467 347.775 95.064C341.802 100.696 335.402 103.469 328.575 103.384ZM333.823 29.016C331.519 25.6027 330.367 21.9333 330.367 18.008C330.367 14.0827 330.964 10.84 332.159 8.28C333.439 5.63466 334.634 3.71466 335.743 2.52C336.852 1.24 338.132 0.599998 339.583 0.599998C341.972 0.599998 344.148 2.392 346.111 5.976C348.074 9.47467 349.055 12.4187 349.055 14.808C349.055 19.2453 347.476 22.744 344.319 25.304C341.247 27.7787 337.748 29.016 333.823 29.016ZM352.897 37.848C352.897 36.312 353.452 35.544 354.561 35.544C356.268 35.544 358.017 35.928 359.809 36.696C361.601 37.3787 363.521 37.9333 365.569 38.36C372.396 23.768 380.246 14.2533 389.121 9.81599C392.193 8.27999 395.265 7.51199 398.337 7.51199C404.054 7.59733 407.894 8.96266 409.857 11.608C411.905 14.2533 412.929 17.6667 412.929 21.848C412.844 29.784 409.43 36.056 402.689 40.664C395.948 45.1867 387.713 47.704 377.985 48.216C375.51 54.7867 373.59 61.784 372.225 69.208C375.553 67.928 379.82 67.288 385.025 67.288C385.708 72.664 386.902 76.504 388.609 78.808C390.316 81.112 392.193 82.264 394.241 82.264C396.374 82.264 398.124 81.752 399.489 80.728C400.94 79.704 402.177 78.552 403.201 77.272C404.31 75.992 405.206 74.84 405.889 73.816C406.657 72.792 407.382 72.28 408.065 72.28C409.516 72.28 410.241 73.56 410.241 76.12C410.241 81.24 408.961 85.5067 406.401 88.92C403.841 92.248 399.916 93.912 394.625 93.912C386.348 93.912 380.46 91.736 376.961 87.384C378.838 106.157 379.777 117.336 379.777 120.92C379.777 127.32 377.772 131.885 373.761 134.616C370.433 136.92 366.166 138.072 360.961 138.072C355.841 138.072 352.257 136.877 350.209 134.488C348.246 132.184 347.265 129.411 347.265 126.168C347.265 105.603 350.209 84.9093 356.097 64.088C357.974 57.432 360.108 51.2027 362.497 45.4C356.097 42.584 352.897 40.0667 352.897 37.848ZM365.697 128.216C366.721 128.216 367.66 127.405 368.513 125.784C369.366 124.248 369.793 122.584 369.793 120.792C369.793 114.904 368.982 105.859 367.361 93.656C365.228 102.445 363.777 111.192 363.009 119.896C362.838 121.773 362.753 122.925 362.753 123.352C362.753 126.595 363.734 128.216 365.697 128.216ZM397.313 20.184C395.606 20.184 393.26 21.8053 390.273 25.048C387.372 28.2907 384.385 33.24 381.313 39.896C387.542 37.1653 391.638 35.0747 393.601 33.624C397.612 30.808 399.617 27.4373 399.617 23.512C399.617 21.2933 398.849 20.184 397.313 20.184ZM438.272 93.656C434.005 99.544 428.288 102.488 421.12 102.488C415.317 102.488 410.667 101.293 407.168 98.904C403.755 96.4293 402.048 92.5467 402.048 87.256C402.048 85.0373 402.347 82.9893 402.944 81.112C403.627 79.2347 404.693 76.9307 406.144 74.2L409.856 43.864C412.501 41.816 416.085 40.792 420.608 40.792C424.448 40.792 426.624 43.352 427.136 48.472C427.307 50.008 427.392 51.8427 427.392 53.976C427.392 56.024 427.051 58.2 426.368 60.504C422.955 72.28 421.291 80.1733 421.376 84.184C421.376 87.256 423.168 88.792 426.752 88.792C430.336 88.792 432.981 87.64 434.688 85.336C436.395 83.032 437.845 80.1733 439.04 76.76C441.259 67.288 443.307 59.48 445.184 53.336C447.147 47.192 448.384 43.5227 448.896 42.328C449.749 40.28 451.371 39.2133 453.76 39.128C456.149 39.2133 458.411 40.92 460.544 44.248C462.677 47.4907 463.744 50.008 463.744 51.8C463.573 57.7733 459.861 72.8347 452.608 96.984C458.155 92.632 463.659 87.2987 469.12 80.984C470.997 78.7653 472.576 76.9307 473.856 75.48C475.136 73.944 476.16 73.176 476.928 73.176C478.123 73.176 478.72 74.5413 478.72 77.272C478.72 82.648 475.691 88.92 469.632 96.088C463.659 103.256 456.32 108.845 447.616 112.856C446.592 116.269 445.483 119.512 444.288 122.584C443.093 125.656 441.557 128.344 439.68 130.648C435.584 135.597 429.355 138.072 420.992 138.072C415.36 138.072 410.539 136.451 406.528 133.208C402.603 129.965 400.64 125.912 400.64 121.048C400.64 118.317 401.536 116.141 403.328 114.52C405.205 112.899 407.723 111.533 410.88 110.424C414.123 109.4 417.877 108.461 422.144 107.608C426.411 106.84 430.976 105.859 435.84 104.664C437.035 99.544 437.845 95.8747 438.272 93.656ZM420.864 128.216C424.875 128.216 428.501 124.717 431.744 117.72C428.672 118.317 425.941 118.744 423.552 119C421.163 119.341 419.115 119.64 417.408 119.896C413.995 120.408 412.331 121.304 412.416 122.584C412.416 124.205 413.355 125.571 415.232 126.68C417.195 127.789 419.072 128.301 420.864 128.216Z"
        fill="#fff" />
</svg>