<svg width="215" height="215" viewBox="0 0 215 215" fill="none" xmlns="http://www.w3.org/2000/svg">
<circle cx="107.5" cy="107.5" r="107.5" fill="#D9D9D9"/>
<path d="M51.632 134.992C51.632 142.416 54.7893 146.128 61.104 146.128C68.016 146.128 72.6667 143.739 75.056 138.96C75.9093 137.253 76.336 135.077 76.336 132.432C76.336 129.701 75.696 127.184 74.416 124.88C72.2827 121.211 68.6133 117.157 63.408 112.72C54.7893 105.381 50.48 97.7867 50.48 89.936C50.48 82 52.9547 75.8987 57.904 71.632C62.8533 67.3653 68.528 65.232 74.928 65.232C81.328 65.232 86.4053 66.8533 90.16 70.096C93.9147 73.3387 95.792 78.2027 95.792 84.688C95.792 88.9547 94.3413 92.6667 91.44 95.824C88.624 98.9813 84.8693 100.944 80.176 101.712C82.3093 103.504 84.4427 105.339 86.576 107.216C88.624 109.093 90.5013 111.141 92.208 113.36C95.9627 118.395 97.84 124.411 97.84 131.408C97.84 136.272 96.688 140.667 94.384 144.592C92.1653 148.517 89.2213 151.845 85.552 154.576C81.968 157.221 77.9147 159.269 73.392 160.72C68.8693 162.171 64.6453 162.896 60.72 162.896C52.3573 162.896 45.872 160.976 41.264 157.136C35.888 152.784 33.2 146.512 33.2 138.32C33.2 132.944 34.9493 127.739 38.448 122.704C41.9467 117.669 45.6587 115.152 49.584 115.152C52.656 115.152 54.192 116.091 54.192 117.968C54.192 120.699 53.7653 123.429 52.912 126.16C52.0587 128.805 51.632 131.749 51.632 134.992ZM76.464 98.64C81.328 93.776 83.76 88.6987 83.76 83.408C83.76 81.7867 82.9067 80.4213 81.2 79.312C79.3227 78.288 77.36 77.776 75.312 77.776C70.704 77.776 67.376 79.2693 65.328 82.256C66.352 85.9253 67.8453 89.04 69.808 91.6C71.856 94.16 74.0747 96.5067 76.464 98.64ZM149.464 118.992C149.464 115.92 147.629 114.384 143.96 114.384C140.376 114.384 136.835 117.2 133.336 122.832C129.837 128.379 127.661 134.053 126.808 139.856C126.979 141.819 127.149 143.781 127.32 145.744C127.491 147.707 127.576 149.627 127.576 151.504C127.576 156.027 126.083 159.099 123.096 160.72C121.731 161.488 120.408 162.213 119.128 162.896C117.933 163.579 116.525 163.92 114.904 163.92C113.283 163.92 111.832 162.853 110.552 160.72C109.357 158.501 108.76 155.088 108.76 150.48C108.76 137.595 109.699 126.416 111.576 116.944C114.477 102.267 120.237 86.5653 128.856 69.84C130.051 67.536 131.8 66.4267 134.104 66.512C136.408 66.512 138.285 68.0907 139.736 71.248C141.187 74.4053 141.869 77.0507 141.784 79.184C141.784 81.3173 141.443 83.408 140.76 85.456C140.163 87.4187 139.352 89.3813 138.328 91.344C137.389 93.2213 136.28 95.184 135 97.232C133.805 99.1947 132.611 101.328 131.416 103.632L129.496 112.848C132.824 107.301 137.304 103.589 142.936 101.712C144.984 101.029 147.245 100.688 149.72 100.688C155.523 100.688 159.917 102.011 162.904 104.656C165.891 107.216 167.384 110.885 167.384 115.664C167.384 120.357 166.744 125.136 165.464 130C164.269 134.864 163.373 138.363 162.776 140.496C162.264 142.544 162.008 144.251 162.008 145.616C162.008 146.981 162.477 147.664 163.416 147.664C164.696 147.664 166.275 146.853 168.152 145.232C170.029 143.611 171.907 141.861 173.784 139.984C175.661 138.021 177.368 136.229 178.904 134.608C180.525 132.987 181.635 132.176 182.232 132.176C183.427 132.176 184.024 133.627 184.024 136.528C184.024 142.501 181.08 148.261 175.192 153.808C165.293 159.611 158.979 162.512 156.248 162.512C155.992 162.512 155.821 162.469 155.736 162.384C148.909 162.384 145.496 156.923 145.496 146C145.496 141.307 145.923 136.997 146.776 133.072C147.715 129.147 148.397 126.288 148.824 124.496C149.251 122.704 149.464 120.869 149.464 118.992Z" fill="#48118D"/>
</svg>
